<svg xmlns="http://www.w3.org/2000/svg" xmlns:ev="http://www.w3.org/2001/xml-events" xmlns:xlink="http://www.w3.org/1999/xlink" width="336" class="st11" color-interpolation-filters="sRGB" viewBox="0 0 215.218 304.034" xml:space="preserve"><style type="text/css">.st1{fill:#fff;stroke:none;stroke-linecap:round;stroke-linejoin:round;stroke-width:.5}.st2{fill:#4271c6;font-family:Calibri;font-size:1.00001em}.st3{fill:#5b9bd5;stroke:#fff;stroke-linecap:round;stroke-linejoin:round;stroke-width:.5}.st4{fill:#fff;font-family:Calibri;font-size:.666664em}.st5{font-size:1em}.st6,.st7{stroke:#5592c9}.st6{marker-end:url(#mrkr4-25);stroke-linecap:round;stroke-linejoin:round;stroke-width:.5}.st7{fill:#5592c9;fill-opacity:1;stroke-opacity:1;stroke-width:.16556291390728}.st8{fill:#fff;stroke:none;stroke-linecap:butt;stroke-width:7.2}.st9{fill:#41719d;font-family:Calibri;font-size:1.00001em}.st10{fill:#fff;stroke:none;stroke-linecap:butt}.st11{fill:none;fill-rule:evenodd;font-size:12px;overflow:visible;stroke-linecap:square;stroke-miterlimit:3}</style><defs id="Markers"><g id="lend4"><path d="M 2 1 L 0 0 L 2 -1 L 2 1" style="stroke:none"/></g><marker id="mrkr4-25" class="st7" markerUnits="strokeWidth" orient="auto" overflow="visible" refX="-12.08"><use transform="scale(-6.04,-6.04)" xlink:href="#lend4"/></marker></defs><g><title>Page-1</title><g id="shape1004-1" transform="translate(19.3222,-110.217)"><title>Sheet.1004</title><desc>Cloud</desc><rect width="39.5" height="17.632" x="0" y="286.402" class="st1"/><text x="5.7" y="298.82" class="st2">Cloud</text></g><g id="shape1005-4" transform="translate(20.2012,-198.978)"><title>Sheet.1005</title><desc>Ready</desc><rect width="39.5" height="17.632" x="0" y="286.402" class="st1"/><text x="4.76" y="298.82" class="st2">Ready</text></g><g id="shape1003-7" transform="translate(18.4512,-286.152)"><title>Sheet.1003</title><desc>Local</desc><rect width="39.5" height="17.632" x="0" y="286.402" class="st1"/><text x="7.28" y="298.82" class="st2">Local</text></g><g id="shape1-10" transform="translate(0.25,-249.795)"><title>Process.1</title><desc>Tested Node ​LISA</desc><rect width="77.774" height="37.85" x="0" y="266.184" class="st3"/><text x="18.26" y="282.71" class="st4">Tested Node<tspan x="4.006em" class="st5" dy="1.2em">​</tspan>LISA</text></g><g id="shape4-14" transform="translate(0.394,-162.819)"><title>Process.4</title><desc>​LISA</desc><rect width="77.774" height="37.85" x="0" y="266.184" class="st3"/><text x="4.006em" y="287.51" class="st4">​LISA</text></g><g id="shape5-17" transform="translate(137.194,-162.812)"><title>Process.5</title><desc>Tested Node</desc><rect width="77.774" height="37.85" x="0" y="266.184" class="st3"/><text x="18.26" y="287.51" class="st4">Tested Node</text></g><g id="shape6-20" transform="translate(78.1684,-190.74)"><title>Dynamic connector.6</title><desc>​SSH</desc><path d="M0 313.03 L52.99 313.04" class="st6"/><rect width="18.504" height="14.4" x="20.261" y="305.834" class="st8"/><text x="1.688em" y="316.63" class="st9">​SSH</text></g><g id="shape15-28" transform="translate(0.8764,-75.8284)"><title>Process.15</title><desc>​LISA</desc><rect width="77.774" height="37.85" x="0" y="266.184" class="st3"/><text x="4.006em" y="287.51" class="st4">​LISA</text></g><g id="shape16-31" transform="translate(137.194,-0.25)"><title>Process.16</title><desc>Tested Node</desc><rect width="77.774" height="37.85" x="0" y="266.184" class="st3"/><text x="18.26" y="287.51" class="st4">Tested Node</text></g><g id="shape17-34" transform="translate(39.7636,-75.8284)"><title>Dynamic connector.17</title><desc>​SSH</desc><path d="M0 304.03 L0 360.69 L91.39 360.69" class="st6"/><rect width="18.504" height="14.4" x="11.137" y="353.487" class="st8"/><text x=".928em" y="364.29" class="st9">​SSH</text></g><g id="shape19-41" transform="translate(137.194,-75.8284)"><title>Process.19</title><desc>Cloud platform (Azure, ...)</desc><rect width="77.774" height="37.85" x="0" y="266.184" class="st3"/><text x="14.42" y="282.71" class="st4">Cloud platform<tspan x="22.15" class="st5" dy="1.2em">(Azure, ...)</tspan></text></g><g id="shape20-45" transform="translate(167.081,-75.8284)"><title>Dynamic connector.20</title><desc>​Deploy</desc><path d="M9 304.03 L9 335.72" class="st6"/><rect width="34.172" height="14.4" x="-8.086" y="315.698" class="st8"/><text x="-.674em" y="326.5" class="st9">​Deploy</text></g><g id="shape21-52" transform="translate(78.6508,-85.7536)"><title>Dynamic connector.21</title><desc>​Deploy</desc><path d="M0 295.03 L52.5 295.03" class="st6"/><rect width="34.172" height="14.4" x="12.185" y="287.834" class="st10"/><text x="1.015em" y="298.63" class="st9">​Deploy</text></g></g></svg>